HIERARCHY
ROOT Hips
{
	OFFSET -0.179506 -22.333345 2.821913
	CHANNELS 6 Xposition Yposition Zposition Zrotation Yrotation Xrotation 
	JOINT LeftUpLeg
	{
		OFFSET 6.951974 -9.140623 -0.681533
		CHANNELS 3 Zrotation Yrotation Xrotation
		JOINT LeftLeg
		{
			OFFSET 3.427654 -37.519855 -0.449580
			CHANNELS 3 Zrotation Yrotation Xrotation
			JOINT LeftFoot
			{
				OFFSET -1.359570 -39.796059 -4.369333
				CHANNELS 3 Zrotation Yrotation Xrotation
				JOINT LeftToe
				{
					OFFSET 2.635814 -5.579078 11.928840
					CHANNELS 3 Zrotation Yrotation Xrotation
					End Site
					{
						OFFSET 0.000000 0.000000 0.000000
					}
				}
			}
		}
	}
	JOINT RightUpLeg
	{
		OFFSET -6.767048 -9.052170 -0.431982
		CHANNELS 3 Zrotation Yrotation Xrotation
		JOINT RightLeg
		{
			OFFSET -3.829005 -38.256897 -0.885003
			CHANNELS 3 Zrotation Yrotation Xrotation
			JOINT RightFoot
			{
				OFFSET 1.577377 -39.841461 -4.231180
				CHANNELS 3 Zrotation Yrotation Xrotation
				JOINT RightToe
				{
					OFFSET -2.537174 -4.814398 12.334795
					CHANNELS 3 Zrotation Yrotation Xrotation
					End Site
					{
						OFFSET 0.000000 0.000000 0.000000
					}
				}
			}
		}
	}
	JOINT Spine
	{
		OFFSET -0.253288 10.896323 -2.669631
		CHANNELS 3 Zrotation Yrotation Xrotation
		JOINT Spine1
		{
			OFFSET 0.548704 13.518043 0.109247
			CHANNELS 3 Zrotation Yrotation Xrotation
			JOINT Spine2
			{
				OFFSET 0.145701 5.292222 2.542457
				CHANNELS 3 Zrotation Yrotation Xrotation
				JOINT Neck
				{
					OFFSET -0.277840 21.387037 -4.285703
					CHANNELS 3 Zrotation Yrotation Xrotation
					JOINT Head
					{
						OFFSET 0.515184 6.496960 5.134897
						CHANNELS 3 Zrotation Yrotation Xrotation
						End Site
						{
							OFFSET 0.000000 0.000000 0.000000
						}
					}
				}
				JOINT LeftShoulder
				{
					OFFSET 7.884473 12.174932 -3.408961
					CHANNELS 3 Zrotation Yrotation Xrotation
					JOINT LeftArm
					{
						OFFSET 9.097692 3.046888 -0.886815
						CHANNELS 3 Zrotation Yrotation Xrotation
						JOINT LeftForeArm
						{
							OFFSET 25.961220 -1.277207 -2.745643
							CHANNELS 3 Zrotation Yrotation Xrotation
							JOINT LeftHand
							{
								OFFSET 24.923361 0.898606 -0.117091
								CHANNELS 3 Zrotation Yrotation Xrotation
								End Site
								{
									OFFSET 0.000000 0.000000 0.000000
								}
							}
						}
					}
				}
				JOINT RightShoulder
				{
					OFFSET -8.175920 11.883285 -3.861528
					CHANNELS 3 Zrotation Yrotation Xrotation
					JOINT RightArm
					{
						OFFSET -9.601238 3.255117 -0.914307
						CHANNELS 3 Zrotation Yrotation Xrotation
						JOINT RightForeArm
						{
							OFFSET -25.374195 -1.332924 -2.140099
							CHANNELS 3 Zrotation Yrotation Xrotation
							JOINT RightHand
							{
								OFFSET -25.529810 0.777228 -0.555919
								CHANNELS 3 Zrotation Yrotation Xrotation
								End Site
								{
									OFFSET 0.000000 0.000000 0.000000
								}
							}
						}
					}
				}
			}
		}
	}
}
MOTION
Frames: 9
Frame Time: 0.033333
-28.713415 123.177238 90.979263 -137.606024 -2.008672 94.133728 12.275041 9.716319 0.452559 -2.893115 10.123217 8.131981 -2.147790 9.599819 -17.023385 nan nan nan -14.805910 -9.951320 -25.314962 -0.797950 -17.216492 25.045717 5.206211 -2.654252 -6.300100 nan nan nan -2.027466 -2.519815 4.992457 7.373049 -6.209158 9.296465 3.440678 -1.238829 -2.385618 5.193988 -5.244816 24.245119 5.101982 -7.950659 7.166798 -2.026914 -17.814955 -3.858395 -75.370255 -45.558212 30.082808 120.622366 -60.130888 -85.352811 0.164078 -19.376886 -4.345293 1.344180 13.590742 -6.927914 40.447143 27.029745 -3.539449 -126.898019 51.174735 -105.531958 2.552395 14.555719 -7.601944 
-28.791779 122.723038 91.037476 -137.040010 -1.935026 93.836557 12.211665 9.547740 0.405120 -2.948140 9.659339 8.138824 -2.081239 9.494290 -17.151211 nan nan nan -14.908460 -10.230157 -24.806687 -0.930040 -17.642449 24.671651 5.272905 -3.017975 -5.820691 nan nan nan -2.313679 -2.342646 5.007325 7.454524 -6.110268 9.411471 3.444191 -0.960737 -2.344611 5.620157 -5.644056 24.009671 5.209262 -8.275660 7.452553 -1.669175 -17.694673 -3.803601 -76.342631 -45.779971 30.857486 120.014302 -60.340273 -84.566586 0.203767 -19.472196 -4.622634 1.508039 13.265050 -6.826574 40.526016 26.758744 -3.710402 -126.311022 51.029990 -104.847374 2.031209 14.440823 -7.624730 
-28.867058 122.292572 91.098015 -136.470049 -1.851840 93.618399 12.167236 9.452846 0.233766 -3.010587 9.347533 8.226502 -2.069352 9.167244 -17.285051 nan nan nan -15.017023 -10.609146 -24.408216 -1.065045 -18.249821 24.320371 5.259836 -3.226277 -5.355233 nan nan nan -2.404102 -2.152859 4.997635 7.469672 -6.021730 9.369425 3.464151 -1.135172 -2.377180 5.850689 -5.655439 24.038539 5.144995 -8.670329 7.674149 -1.855217 -17.509064 -3.772022 -76.604153 -45.632541 31.097794 119.823759 -60.471343 -84.257703 -0.231656 -19.683414 -4.668761 1.673392 13.378060 -6.556003 40.604523 26.508839 -3.782919 -125.669995 50.767591 -104.283630 2.169712 14.365967 -7.537442 
-28.931402 121.844315 91.141769 -135.909469 -1.757767 93.401673 12.124453 9.307739 0.060005 -3.109477 9.040333 8.336958 -2.004007 8.978373 -17.365878 nan nan nan -15.201276 -10.995426 -23.999219 -1.048414 -18.834540 23.985101 5.181699 -3.375768 -4.870685 nan nan nan -2.493011 -1.900861 4.889197 7.526435 -5.924036 9.515778 3.426438 -1.233543 -2.381562 6.040898 -5.702440 23.977435 5.205634 -9.081012 7.665297 -1.713606 -17.328032 -3.800259 -77.063079 -45.668691 31.549710 119.598225 -60.615558 -84.111930 -0.317134 -19.524750 -4.573026 1.664905 13.294624 -6.464773 40.844318 26.183545 -3.771025 -125.041669 50.438384 -103.606466 2.248283 14.332187 -7.418878 
-28.999331 121.405869 91.184082 -135.330124 -1.666808 93.161276 12.048566 9.108550 -0.094131 -3.193383 8.627801 8.435674 -1.887050 8.975819 -17.481616 nan nan nan -15.343017 -11.323018 -23.610005 -1.013720 -19.154323 23.699350 5.025431 -3.624464 -4.546394 nan nan nan -2.718433 -1.655142 4.768682 7.587165 -5.938703 9.680865 3.471770 -1.139599 -2.227762 6.221505 -6.000852 23.683209 5.442433 -9.210420 7.730510 -1.819957 -17.386018 -3.554332 -77.265556 -45.978506 31.830982 119.586013 -60.915900 -84.053967 -0.209904 -19.249352 -4.755759 1.884955 13.127855 -6.496727 40.810284 25.822990 -3.952664 -124.401680 50.225973 -102.912546 2.343021 14.314457 -7.101343 
-29.067379 120.977203 91.217422 -134.867173 -1.600591 92.928666 11.915871 8.918348 -0.158067 -3.255301 8.242637 8.414237 -1.676923 9.067133 -17.544304 nan nan nan -15.463496 -11.542534 -23.267009 -0.985152 -19.371128 23.452775 4.822072 -3.920524 -4.327259 nan nan nan -2.916213 -1.417020 4.668167 7.629319 -5.862562 9.925301 3.467110 -0.977445 -2.231524 6.290579 -6.327577 23.521425 5.665396 -9.369537 7.734977 -1.834258 -17.183306 -3.363233 -77.723656 -46.284011 32.271597 119.504497 -61.384296 -83.881799 -0.088139 -19.197926 -4.949160 2.065792 12.658007 -6.491809 41.020442 25.723067 -4.085323 -123.947710 50.145292 -102.293428 2.210248 14.253190 -6.846354 
-29.158600 120.563751 91.236488 -134.474389 -1.490916 92.619278 11.819668 8.783788 -0.062550 -3.292392 7.802684 8.315763 -1.451396 9.239322 -17.680949 nan nan nan -15.598638 -11.811685 -22.827399 -0.836737 -19.744098 23.226967 4.830120 -4.205906 -4.080607 nan nan nan -3.057987 -1.153901 4.554272 7.672984 -5.712097 10.362991 3.490338 -0.903527 -2.344500 6.328923 -6.589333 23.456124 5.787305 -9.605907 7.623665 -1.899192 -17.022159 -3.191878 -78.087180 -46.523832 32.570642 119.519496 -61.870168 -83.696243 0.051280 -19.456803 -4.793713 2.118277 12.293125 -6.496971 41.249368 25.497092 -4.274526 -123.570295 50.101282 -101.688671 2.188427 14.080276 -6.754427 
-29.238455 120.168190 91.244675 -134.062147 -1.356220 92.295843 11.747703 8.668478 -0.021568 -3.277172 7.406259 8.325568 -1.293938 9.355658 -17.848851 nan nan nan -15.669110 -12.080005 -22.450153 -0.764128 -20.160132 23.175509 4.891517 -4.500166 -4.046044 nan nan nan -3.151888 -0.927772 4.558324 7.661903 -5.530833 10.489042 3.540204 -0.932756 -2.267178 6.401525 -6.707299 23.432026 5.917502 -9.781534 7.592418 -1.972190 -17.041182 -3.045506 -78.044442 -46.552515 32.603413 119.957068 -62.205407 -83.998845 0.116761 -19.689218 -4.638924 2.259638 12.170995 -6.521498 41.470755 25.085119 -4.441864 -123.157785 50.034447 -101.071312 2.669605 13.817431 -6.555269 
-29.290785 119.793434 91.240402 -133.654855 -1.236168 92.043883 11.685073 8.570260 -0.130433 -3.278807 7.129515 8.492382 -1.169378 9.375766 -18.035514 nan nan nan -15.712494 -12.298244 -22.176354 -0.635518 -20.348072 23.200533 4.896437 -4.699565 -4.214582 nan nan nan -3.221061 -0.827162 4.730581 7.591195 -5.422329 10.096258 3.526779 -0.868224 -1.934891 6.467359 -6.668314 23.425034 6.144762 -9.884976 7.604406 -1.946456 -16.940173 -2.955488 -78.125091 -46.464306 32.722665 120.587142 -62.430793 -84.756309 0.098620 -19.581731 -4.787981 2.483920 12.104751 -6.416969 41.767869 24.787050 -4.595495 -122.868811 49.953082 -100.646235 3.123110 13.580501 -6.102689 
